<mxfile host="app.diagrams.net" agent="Mozilla/5.0 (Windows NT 10.0; Win64; x64; rv:109.0) Gecko/20100101 Firefox/115.0" version="24.7.7">
  <diagram id="C2fSY1v2SiZeoUbDoYyL" name="version1">
    <mxGraphModel dx="2474" dy="1486" grid="0" gridSize="10" guides="1" tooltips="1" connect="1" arrows="1" fold="1" page="0" pageScale="1" pageWidth="1169" pageHeight="827" background="#ffffff" math="0" shadow="0">
      <root>
        <mxCell id="0" />
        <mxCell id="1" parent="0" />
        <mxCell id="8JMCMYOHUbDYGH28COBw-7" style="edgeStyle=orthogonalEdgeStyle;rounded=0;orthogonalLoop=1;jettySize=auto;html=1;exitX=0.5;exitY=0;exitDx=0;exitDy=0;" parent="1" source="lOSEdYP4OjQFCiWL81xW-1" target="8JMCMYOHUbDYGH28COBw-4" edge="1">
          <mxGeometry relative="1" as="geometry" />
        </mxCell>
        <mxCell id="3ne1QswCM8ZiEu4GHsYG-31" value="&lt;font color=&quot;#000000&quot;&gt;MCF data processing workflow&lt;/font&gt;" style="text;html=1;strokeColor=none;fillColor=none;align=center;verticalAlign=middle;whiteSpace=wrap;rounded=0;fontStyle=1;fontSize=20;fontColor=#4D4D4D;" parent="1" vertex="1">
          <mxGeometry x="316" y="-165" width="790" height="30" as="geometry" />
        </mxCell>
        <mxCell id="3ne1QswCM8ZiEu4GHsYG-32" value="" style="line;strokeWidth=2;html=1;fontSize=20;fontColor=#4D4D4D;" parent="1" vertex="1">
          <mxGeometry x="-1" y="-130" width="1424" height="10" as="geometry" />
        </mxCell>
        <mxCell id="Y5Xn4VqGCodK_vh0GEGT-32" style="edgeStyle=orthogonalEdgeStyle;rounded=0;orthogonalLoop=1;jettySize=auto;html=1;exitX=0.5;exitY=0;exitDx=0;exitDy=0;" parent="1" target="Y5Xn4VqGCodK_vh0GEGT-31" edge="1">
          <mxGeometry relative="1" as="geometry">
            <mxPoint x="210" y="273" as="sourcePoint" />
          </mxGeometry>
        </mxCell>
        <mxCell id="Y5Xn4VqGCodK_vh0GEGT-14" style="edgeStyle=orthogonalEdgeStyle;rounded=0;orthogonalLoop=1;jettySize=auto;html=1;exitX=0.5;exitY=1;exitDx=0;exitDy=0;" parent="1" source="Y5Xn4VqGCodK_vh0GEGT-3" target="Y5Xn4VqGCodK_vh0GEGT-12" edge="1">
          <mxGeometry relative="1" as="geometry" />
        </mxCell>
        <mxCell id="Y5Xn4VqGCodK_vh0GEGT-3" value="&lt;div&gt;Data QC&amp;nbsp;&lt;/div&gt;&lt;div&gt;reporting&lt;br&gt;&lt;/div&gt;" style="whiteSpace=wrap;html=1;aspect=fixed;fillColor=#fff2cc;strokeColor=#d6b656;fontStyle=1" parent="1" vertex="1">
          <mxGeometry x="142" y="240" width="129" height="129" as="geometry" />
        </mxCell>
        <mxCell id="Y5Xn4VqGCodK_vh0GEGT-12" value="" style="shape=image;html=1;verticalAlign=top;verticalLabelPosition=bottom;labelBackgroundColor=#ffffff;imageAspect=0;aspect=fixed;image=https://cdn2.iconfinder.com/data/icons/boxicons-solid-vol-2/24/bxs-file-html-128.png" parent="1" vertex="1">
          <mxGeometry x="166.5" y="404.5" width="80" height="80" as="geometry" />
        </mxCell>
        <mxCell id="myo_U1JuMB-0r-bkWU0E-12" style="edgeStyle=orthogonalEdgeStyle;rounded=0;orthogonalLoop=1;jettySize=auto;html=1;exitX=1;exitY=0.25;exitDx=0;exitDy=0;dashed=1;" parent="1" source="Y5Xn4VqGCodK_vh0GEGT-17" target="myo_U1JuMB-0r-bkWU0E-9" edge="1">
          <mxGeometry relative="1" as="geometry" />
        </mxCell>
        <mxCell id="myo_U1JuMB-0r-bkWU0E-13" style="edgeStyle=orthogonalEdgeStyle;rounded=0;orthogonalLoop=1;jettySize=auto;html=1;exitX=1;exitY=0.25;exitDx=0;exitDy=0;dashed=1;" parent="1" source="Y5Xn4VqGCodK_vh0GEGT-17" target="myo_U1JuMB-0r-bkWU0E-11" edge="1">
          <mxGeometry relative="1" as="geometry" />
        </mxCell>
        <mxCell id="myo_U1JuMB-0r-bkWU0E-17" style="edgeStyle=orthogonalEdgeStyle;rounded=0;orthogonalLoop=1;jettySize=auto;html=1;exitX=0.25;exitY=0;exitDx=0;exitDy=0;" parent="1" source="Y5Xn4VqGCodK_vh0GEGT-17" target="myo_U1JuMB-0r-bkWU0E-2" edge="1">
          <mxGeometry relative="1" as="geometry" />
        </mxCell>
        <mxCell id="myo_U1JuMB-0r-bkWU0E-37" style="edgeStyle=orthogonalEdgeStyle;rounded=0;orthogonalLoop=1;jettySize=auto;html=1;exitX=1;exitY=0.75;exitDx=0;exitDy=0;strokeWidth=5;" parent="1" source="Y5Xn4VqGCodK_vh0GEGT-17" edge="1">
          <mxGeometry relative="1" as="geometry">
            <mxPoint x="950" y="330.3333333333335" as="targetPoint" />
          </mxGeometry>
        </mxCell>
        <mxCell id="Y5Xn4VqGCodK_vh0GEGT-17" value="&lt;div&gt;Data processing&lt;/div&gt;&lt;div&gt;MZmine3&lt;br&gt;&lt;/div&gt;" style="whiteSpace=wrap;html=1;aspect=fixed;fillColor=#dae8fc;strokeColor=#6c8ebf;fontStyle=1" parent="1" vertex="1">
          <mxGeometry x="761" y="240" width="120" height="120" as="geometry" />
        </mxCell>
        <mxCell id="Y5Xn4VqGCodK_vh0GEGT-21" style="edgeStyle=orthogonalEdgeStyle;rounded=0;orthogonalLoop=1;jettySize=auto;html=1;entryX=0;entryY=0.5;entryDx=0;entryDy=0;strokeWidth=5;" parent="1" source="Y5Xn4VqGCodK_vh0GEGT-19" edge="1">
          <mxGeometry relative="1" as="geometry">
            <mxPoint x="141" y="333" as="targetPoint" />
          </mxGeometry>
        </mxCell>
        <mxCell id="Y5Xn4VqGCodK_vh0GEGT-19" value=".mzml" style="image;aspect=fixed;html=1;points=[];align=center;fontSize=12;image=img/lib/azure2/general/Files.svg;" parent="1" vertex="1">
          <mxGeometry x="41" y="298" width="64" height="70" as="geometry" />
        </mxCell>
        <mxCell id="Y5Xn4VqGCodK_vh0GEGT-38" style="edgeStyle=orthogonalEdgeStyle;rounded=0;orthogonalLoop=1;jettySize=auto;html=1;entryX=0;entryY=0.5;entryDx=0;entryDy=0;" parent="1" source="Y5Xn4VqGCodK_vh0GEGT-22" target="Y5Xn4VqGCodK_vh0GEGT-36" edge="1">
          <mxGeometry relative="1" as="geometry">
            <Array as="points">
              <mxPoint x="382" y="494" />
            </Array>
          </mxGeometry>
        </mxCell>
        <mxCell id="myo_U1JuMB-0r-bkWU0E-26" style="edgeStyle=orthogonalEdgeStyle;rounded=0;orthogonalLoop=1;jettySize=auto;html=1;entryX=0;entryY=0.75;entryDx=0;entryDy=0;strokeWidth=5;" parent="1" source="Y5Xn4VqGCodK_vh0GEGT-22" target="Y5Xn4VqGCodK_vh0GEGT-17" edge="1">
          <mxGeometry relative="1" as="geometry" />
        </mxCell>
        <mxCell id="lOSEdYP4OjQFCiWL81xW-2" style="edgeStyle=orthogonalEdgeStyle;rounded=0;orthogonalLoop=1;jettySize=auto;html=1;entryX=0.5;entryY=1;entryDx=0;entryDy=0;strokeWidth=5;" parent="1" source="Y5Xn4VqGCodK_vh0GEGT-22" target="lOSEdYP4OjQFCiWL81xW-1" edge="1">
          <mxGeometry relative="1" as="geometry" />
        </mxCell>
        <mxCell id="Y5Xn4VqGCodK_vh0GEGT-22" value=".mzml" style="image;aspect=fixed;html=1;points=[];align=center;fontSize=12;image=img/lib/azure2/general/Files.svg;" parent="1" vertex="1">
          <mxGeometry x="332" y="295" width="64" height="70" as="geometry" />
        </mxCell>
        <mxCell id="Y5Xn4VqGCodK_vh0GEGT-23" style="edgeStyle=orthogonalEdgeStyle;rounded=0;orthogonalLoop=1;jettySize=auto;html=1;entryX=0.016;entryY=0.543;entryDx=0;entryDy=0;entryPerimeter=0;strokeWidth=5;" parent="1" target="Y5Xn4VqGCodK_vh0GEGT-22" edge="1">
          <mxGeometry relative="1" as="geometry">
            <mxPoint x="270" y="333.0100000000002" as="sourcePoint" />
          </mxGeometry>
        </mxCell>
        <mxCell id="Y5Xn4VqGCodK_vh0GEGT-31" value="" style="sketch=0;pointerEvents=1;shadow=0;dashed=0;html=1;strokeColor=none;fillColor=#434445;aspect=fixed;labelPosition=center;verticalLabelPosition=bottom;verticalAlign=top;align=center;outlineConnect=0;shape=mxgraph.vvd.log_files;" parent="1" vertex="1">
          <mxGeometry x="182" y="120" width="56" height="70" as="geometry" />
        </mxCell>
        <mxCell id="Y5Xn4VqGCodK_vh0GEGT-40" style="edgeStyle=orthogonalEdgeStyle;rounded=0;orthogonalLoop=1;jettySize=auto;html=1;exitX=0.5;exitY=1;exitDx=0;exitDy=0;entryX=0.5;entryY=0;entryDx=0;entryDy=0;" parent="1" source="Y5Xn4VqGCodK_vh0GEGT-36" target="Y5Xn4VqGCodK_vh0GEGT-39" edge="1">
          <mxGeometry relative="1" as="geometry" />
        </mxCell>
        <mxCell id="Y5Xn4VqGCodK_vh0GEGT-36" value="&lt;div&gt;Processing&lt;/div&gt;&lt;div&gt;reporting&lt;/div&gt;&lt;div&gt;&lt;br&gt;&lt;/div&gt;" style="whiteSpace=wrap;html=1;aspect=fixed;fillColor=#dae8fc;strokeColor=#6c8ebf;fontStyle=1" parent="1" vertex="1">
          <mxGeometry x="918.35" y="434" width="120" height="120" as="geometry" />
        </mxCell>
        <mxCell id="Y5Xn4VqGCodK_vh0GEGT-39" value="" style="shape=image;html=1;verticalAlign=top;verticalLabelPosition=bottom;labelBackgroundColor=#ffffff;imageAspect=0;aspect=fixed;image=https://cdn2.iconfinder.com/data/icons/boxicons-solid-vol-2/24/bxs-file-html-128.png" parent="1" vertex="1">
          <mxGeometry x="938.35" y="602" width="80" height="80" as="geometry" />
        </mxCell>
        <mxCell id="Y5Xn4VqGCodK_vh0GEGT-42" value="" style="sketch=0;points=[[0,0,0],[0.25,0,0],[0.5,0,0],[0.75,0,0],[1,0,0],[0,1,0],[0.25,1,0],[0.5,1,0],[0.75,1,0],[1,1,0],[0,0.25,0],[0,0.5,0],[0,0.75,0],[1,0.25,0],[1,0.5,0],[1,0.75,0]];outlineConnect=0;fontColor=#232F3E;fillColor=#ED7100;strokeColor=#ffffff;dashed=0;verticalLabelPosition=bottom;verticalAlign=top;align=center;html=1;fontSize=12;fontStyle=0;aspect=fixed;shape=mxgraph.aws4.resourceIcon;resIcon=mxgraph.aws4.ecr;" parent="1" vertex="1">
          <mxGeometry x="762" y="330" width="30" height="30" as="geometry" />
        </mxCell>
        <mxCell id="Y5Xn4VqGCodK_vh0GEGT-43" value="" style="sketch=0;points=[[0,0,0],[0.25,0,0],[0.5,0,0],[0.75,0,0],[1,0,0],[0,1,0],[0.25,1,0],[0.5,1,0],[0.75,1,0],[1,1,0],[0,0.25,0],[0,0.5,0],[0,0.75,0],[1,0.25,0],[1,0.5,0],[1,0.75,0]];outlineConnect=0;fontColor=#232F3E;fillColor=#ED7100;strokeColor=#ffffff;dashed=0;verticalLabelPosition=bottom;verticalAlign=top;align=center;html=1;fontSize=12;fontStyle=0;aspect=fixed;shape=mxgraph.aws4.resourceIcon;resIcon=mxgraph.aws4.ecr;" parent="1" vertex="1">
          <mxGeometry x="142" y="339" width="30" height="30" as="geometry" />
        </mxCell>
        <mxCell id="Y5Xn4VqGCodK_vh0GEGT-44" value="" style="sketch=0;points=[[0,0,0],[0.25,0,0],[0.5,0,0],[0.75,0,0],[1,0,0],[0,1,0],[0.25,1,0],[0.5,1,0],[0.75,1,0],[1,1,0],[0,0.25,0],[0,0.5,0],[0,0.75,0],[1,0.25,0],[1,0.5,0],[1,0.75,0]];outlineConnect=0;fontColor=#232F3E;fillColor=#ED7100;strokeColor=#ffffff;dashed=0;verticalLabelPosition=bottom;verticalAlign=top;align=center;html=1;fontSize=12;fontStyle=0;aspect=fixed;shape=mxgraph.aws4.resourceIcon;resIcon=mxgraph.aws4.ecr;" parent="1" vertex="1">
          <mxGeometry x="919.35" y="524" width="30" height="30" as="geometry" />
        </mxCell>
        <mxCell id="Y5Xn4VqGCodK_vh0GEGT-45" value="" style="sketch=0;points=[[0,0,0],[0.25,0,0],[0.5,0,0],[0.75,0,0],[1,0,0],[0,1,0],[0.25,1,0],[0.5,1,0],[0.75,1,0],[1,1,0],[0,0.25,0],[0,0.5,0],[0,0.75,0],[1,0.25,0],[1,0.5,0],[1,0.75,0]];outlineConnect=0;fontColor=#232F3E;fillColor=#ED7100;strokeColor=#ffffff;dashed=0;verticalLabelPosition=bottom;verticalAlign=top;align=center;html=1;fontSize=12;fontStyle=0;aspect=fixed;shape=mxgraph.aws4.resourceIcon;resIcon=mxgraph.aws4.ecr;" parent="1" vertex="1">
          <mxGeometry x="80" y="-73" width="30" height="30" as="geometry" />
        </mxCell>
        <mxCell id="Y5Xn4VqGCodK_vh0GEGT-48" value="singularity container" style="text;html=1;align=center;verticalAlign=middle;whiteSpace=wrap;rounded=0;" parent="1" vertex="1">
          <mxGeometry x="113.5" y="-73" width="60" height="30" as="geometry" />
        </mxCell>
        <mxCell id="Y5Xn4VqGCodK_vh0GEGT-49" value="" style="outlineConnect=0;dashed=0;verticalLabelPosition=bottom;verticalAlign=top;align=center;html=1;shape=mxgraph.aws3.android;fillColor=#FFD44F;gradientColor=none;" parent="1" vertex="1">
          <mxGeometry x="172" y="338.5" width="28" height="31" as="geometry" />
        </mxCell>
        <mxCell id="Y5Xn4VqGCodK_vh0GEGT-50" value="" style="outlineConnect=0;dashed=0;verticalLabelPosition=bottom;verticalAlign=top;align=center;html=1;shape=mxgraph.aws3.android;fillColor=#FFD44F;gradientColor=none;" parent="1" vertex="1">
          <mxGeometry x="82" y="-113" width="28" height="31" as="geometry" />
        </mxCell>
        <mxCell id="Y5Xn4VqGCodK_vh0GEGT-51" value="Python" style="text;html=1;align=center;verticalAlign=middle;whiteSpace=wrap;rounded=0;" parent="1" vertex="1">
          <mxGeometry x="113.5" y="-112" width="60" height="30" as="geometry" />
        </mxCell>
        <mxCell id="Y5Xn4VqGCodK_vh0GEGT-52" value="" style="outlineConnect=0;dashed=0;verticalLabelPosition=bottom;verticalAlign=top;align=center;html=1;shape=mxgraph.aws3.android;fillColor=#FFD44F;gradientColor=none;" parent="1" vertex="1">
          <mxGeometry x="953" y="524" width="28" height="31" as="geometry" />
        </mxCell>
        <mxCell id="Y5Xn4VqGCodK_vh0GEGT-53" value="&lt;div&gt;Format wrapper&amp;nbsp;&lt;/div&gt;&lt;div&gt;to DB&lt;br&gt;&lt;/div&gt;" style="whiteSpace=wrap;html=1;aspect=fixed;fillColor=#d5e8d4;strokeColor=#82b366;fontStyle=1" parent="1" vertex="1">
          <mxGeometry x="1130" y="159" width="120" height="120" as="geometry" />
        </mxCell>
        <mxCell id="Y5Xn4VqGCodK_vh0GEGT-55" value="" style="sketch=0;points=[[0,0,0],[0.25,0,0],[0.5,0,0],[0.75,0,0],[1,0,0],[0,1,0],[0.25,1,0],[0.5,1,0],[0.75,1,0],[1,1,0],[0,0.25,0],[0,0.5,0],[0,0.75,0],[1,0.25,0],[1,0.5,0],[1,0.75,0]];outlineConnect=0;fontColor=#232F3E;fillColor=#ED7100;strokeColor=#ffffff;dashed=0;verticalLabelPosition=bottom;verticalAlign=top;align=center;html=1;fontSize=12;fontStyle=0;aspect=fixed;shape=mxgraph.aws4.resourceIcon;resIcon=mxgraph.aws4.ecr;" parent="1" vertex="1">
          <mxGeometry x="1131" y="249" width="30" height="30" as="geometry" />
        </mxCell>
        <mxCell id="Y5Xn4VqGCodK_vh0GEGT-56" value="" style="outlineConnect=0;dashed=0;verticalLabelPosition=bottom;verticalAlign=top;align=center;html=1;shape=mxgraph.aws3.android;fillColor=#FFD44F;gradientColor=none;" parent="1" vertex="1">
          <mxGeometry x="1164.65" y="249" width="28" height="31" as="geometry" />
        </mxCell>
        <mxCell id="Y5Xn4VqGCodK_vh0GEGT-57" value="&lt;div&gt;Data&amp;nbsp;&lt;/div&gt;&lt;div&gt;interpretation&lt;/div&gt;" style="whiteSpace=wrap;html=1;aspect=fixed;fillColor=#e1d5e7;strokeColor=#9673a6;fontStyle=1" parent="1" vertex="1">
          <mxGeometry x="1227" y="435" width="120" height="120" as="geometry" />
        </mxCell>
        <mxCell id="myo_U1JuMB-0r-bkWU0E-2" value="" style="sketch=0;pointerEvents=1;shadow=0;dashed=0;html=1;strokeColor=none;fillColor=#434445;aspect=fixed;labelPosition=center;verticalLabelPosition=bottom;verticalAlign=top;align=center;outlineConnect=0;shape=mxgraph.vvd.log_files;" parent="1" vertex="1">
          <mxGeometry x="762" y="117.5" width="58" height="72.5" as="geometry" />
        </mxCell>
        <mxCell id="myo_U1JuMB-0r-bkWU0E-22" style="edgeStyle=orthogonalEdgeStyle;rounded=0;orthogonalLoop=1;jettySize=auto;html=1;exitX=0.5;exitY=0;exitDx=0;exitDy=0;entryX=0.75;entryY=0;entryDx=0;entryDy=0;dashed=1;" parent="1" source="myo_U1JuMB-0r-bkWU0E-9" target="Y5Xn4VqGCodK_vh0GEGT-53" edge="1">
          <mxGeometry relative="1" as="geometry" />
        </mxCell>
        <mxCell id="myo_U1JuMB-0r-bkWU0E-9" value="&lt;div&gt;Feature EIC&lt;/div&gt;&lt;div&gt;&lt;br&gt;&lt;/div&gt;" style="shape=image;html=1;verticalAlign=top;verticalLabelPosition=bottom;labelBackgroundColor=#ffffff;imageAspect=0;aspect=fixed;image=https://cdn2.iconfinder.com/data/icons/boxicons-solid-vol-2/24/bxs-file-png-128.png" parent="1" vertex="1">
          <mxGeometry x="881" y="98.5" width="81" height="81" as="geometry" />
        </mxCell>
        <mxCell id="myo_U1JuMB-0r-bkWU0E-23" style="edgeStyle=orthogonalEdgeStyle;rounded=0;orthogonalLoop=1;jettySize=auto;html=1;exitX=0.5;exitY=0;exitDx=0;exitDy=0;entryX=0.5;entryY=0;entryDx=0;entryDy=0;dashed=1;" parent="1" source="myo_U1JuMB-0r-bkWU0E-11" target="Y5Xn4VqGCodK_vh0GEGT-53" edge="1">
          <mxGeometry relative="1" as="geometry" />
        </mxCell>
        <mxCell id="myo_U1JuMB-0r-bkWU0E-11" value="&lt;div&gt;Spectral DB&lt;/div&gt;&lt;div&gt;matchs&lt;br&gt;&lt;/div&gt;&lt;div&gt;&lt;br&gt;&lt;/div&gt;" style="shape=image;html=1;verticalAlign=top;verticalLabelPosition=bottom;labelBackgroundColor=#ffffff;imageAspect=0;aspect=fixed;image=https://cdn2.iconfinder.com/data/icons/boxicons-solid-vol-2/24/bxs-file-png-128.png" parent="1" vertex="1">
          <mxGeometry x="970" y="98.5" width="81" height="81" as="geometry" />
        </mxCell>
        <mxCell id="myo_U1JuMB-0r-bkWU0E-19" style="edgeStyle=orthogonalEdgeStyle;rounded=0;orthogonalLoop=1;jettySize=auto;html=1;exitX=0;exitY=0.5;exitDx=0;exitDy=0;exitPerimeter=0;strokeWidth=6;strokeColor=#000000;" parent="1" source="myo_U1JuMB-0r-bkWU0E-16" target="myo_U1JuMB-0r-bkWU0E-18" edge="1">
          <mxGeometry relative="1" as="geometry" />
        </mxCell>
        <mxCell id="myo_U1JuMB-0r-bkWU0E-16" value="MCF DB" style="shape=cylinder3;whiteSpace=wrap;html=1;boundedLbl=1;backgroundOutline=1;size=15;fillColor=#d5e8d4;strokeColor=#82b366;fontStyle=1" parent="1" vertex="1">
          <mxGeometry x="1250" y="-50" width="80" height="100" as="geometry" />
        </mxCell>
        <mxCell id="myo_U1JuMB-0r-bkWU0E-20" style="edgeStyle=orthogonalEdgeStyle;rounded=0;orthogonalLoop=1;jettySize=auto;html=1;entryX=0.75;entryY=0;entryDx=0;entryDy=0;strokeWidth=6;strokeColor=#000000;" parent="1" source="myo_U1JuMB-0r-bkWU0E-18" target="Y5Xn4VqGCodK_vh0GEGT-17" edge="1">
          <mxGeometry relative="1" as="geometry" />
        </mxCell>
        <mxCell id="myo_U1JuMB-0r-bkWU0E-18" value="&lt;div&gt;.json / .msp /&lt;/div&gt;&lt;div&gt;.mgf&lt;br&gt;&lt;/div&gt;" style="whiteSpace=wrap;html=1;shape=mxgraph.basic.document;fillColor=#d5e8d4;strokeColor=#82b366;" parent="1" vertex="1">
          <mxGeometry x="949.35" y="-35" width="53" height="70" as="geometry" />
        </mxCell>
        <mxCell id="myo_U1JuMB-0r-bkWU0E-21" style="edgeStyle=orthogonalEdgeStyle;rounded=0;orthogonalLoop=1;jettySize=auto;html=1;exitX=1;exitY=0.25;exitDx=0;exitDy=0;entryX=0.5;entryY=1;entryDx=0;entryDy=0;entryPerimeter=0;strokeWidth=5;" parent="1" source="Y5Xn4VqGCodK_vh0GEGT-53" target="myo_U1JuMB-0r-bkWU0E-16" edge="1">
          <mxGeometry relative="1" as="geometry" />
        </mxCell>
        <mxCell id="myo_U1JuMB-0r-bkWU0E-36" style="edgeStyle=orthogonalEdgeStyle;rounded=0;orthogonalLoop=1;jettySize=auto;html=1;exitX=0;exitY=0.5;exitDx=0;exitDy=0;exitPerimeter=0;entryX=1;entryY=0.75;entryDx=0;entryDy=0;" parent="1" source="myo_U1JuMB-0r-bkWU0E-24" target="Y5Xn4VqGCodK_vh0GEGT-53" edge="1">
          <mxGeometry relative="1" as="geometry" />
        </mxCell>
        <mxCell id="myo_U1JuMB-0r-bkWU0E-24" value="metadata" style="whiteSpace=wrap;html=1;shape=mxgraph.basic.document;fillColor=#d5e8d4;strokeColor=#82b366;" parent="1" vertex="1">
          <mxGeometry x="1330" y="206" width="70" height="86" as="geometry" />
        </mxCell>
        <mxCell id="myo_U1JuMB-0r-bkWU0E-32" style="edgeStyle=orthogonalEdgeStyle;rounded=0;orthogonalLoop=1;jettySize=auto;html=1;" parent="1" source="myo_U1JuMB-0r-bkWU0E-31" target="Y5Xn4VqGCodK_vh0GEGT-36" edge="1">
          <mxGeometry relative="1" as="geometry" />
        </mxCell>
        <mxCell id="myo_U1JuMB-0r-bkWU0E-33" style="edgeStyle=orthogonalEdgeStyle;rounded=0;orthogonalLoop=1;jettySize=auto;html=1;strokeWidth=5;" parent="1" source="myo_U1JuMB-0r-bkWU0E-31" target="Y5Xn4VqGCodK_vh0GEGT-53" edge="1">
          <mxGeometry relative="1" as="geometry" />
        </mxCell>
        <mxCell id="myo_U1JuMB-0r-bkWU0E-34" style="edgeStyle=orthogonalEdgeStyle;rounded=0;orthogonalLoop=1;jettySize=auto;html=1;entryX=0;entryY=0.5;entryDx=0;entryDy=0;" parent="1" source="myo_U1JuMB-0r-bkWU0E-31" target="Y5Xn4VqGCodK_vh0GEGT-57" edge="1">
          <mxGeometry relative="1" as="geometry" />
        </mxCell>
        <mxCell id="myo_U1JuMB-0r-bkWU0E-31" value="Feature table" style="image;aspect=fixed;html=1;points=[];align=center;fontSize=12;image=img/lib/azure2/general/File.svg;imageBorder=none;" parent="1" vertex="1">
          <mxGeometry x="950.35" y="286" width="56.00000000000001" height="69" as="geometry" />
        </mxCell>
        <mxCell id="lOSEdYP4OjQFCiWL81xW-1" value="Data extraction" style="whiteSpace=wrap;html=1;aspect=fixed;fillColor=#fff2cc;strokeColor=#d6b656;fontStyle=1" parent="1" vertex="1">
          <mxGeometry x="400" y="79" width="120" height="120" as="geometry" />
        </mxCell>
        <mxCell id="ZuhiowC8PhigW1cet0k5-1" value="&lt;div&gt;Intensity along the sequence&lt;/div&gt;&lt;div&gt;??&lt;br&gt;&lt;/div&gt;" style="text;html=1;align=center;verticalAlign=middle;resizable=0;points=[];autosize=1;strokeColor=none;fillColor=none;" parent="1" vertex="1">
          <mxGeometry x="116.5" y="484" width="180" height="40" as="geometry" />
        </mxCell>
        <mxCell id="ZuhiowC8PhigW1cet0k5-6" style="edgeStyle=orthogonalEdgeStyle;rounded=0;orthogonalLoop=1;jettySize=auto;html=1;entryX=0.5;entryY=1;entryDx=0;entryDy=0;strokeWidth=5;" parent="1" source="ZuhiowC8PhigW1cet0k5-5" target="Y5Xn4VqGCodK_vh0GEGT-17" edge="1">
          <mxGeometry relative="1" as="geometry" />
        </mxCell>
        <mxCell id="ZuhiowC8PhigW1cet0k5-5" value="batch mode" style="shape=image;html=1;verticalAlign=top;verticalLabelPosition=bottom;labelBackgroundColor=#ffffff;imageAspect=0;aspect=fixed;image=https://cdn1.iconfinder.com/data/icons/bootstrap-vol-3/16/filetype-xml-128.png" parent="1" vertex="1">
          <mxGeometry x="634" y="369.5" width="78" height="78" as="geometry" />
        </mxCell>
        <mxCell id="8JMCMYOHUbDYGH28COBw-1" value="" style="sketch=0;points=[[0,0,0],[0.25,0,0],[0.5,0,0],[0.75,0,0],[1,0,0],[0,1,0],[0.25,1,0],[0.5,1,0],[0.75,1,0],[1,1,0],[0,0.25,0],[0,0.5,0],[0,0.75,0],[1,0.25,0],[1,0.5,0],[1,0.75,0]];outlineConnect=0;fontColor=#232F3E;fillColor=#ED7100;strokeColor=#ffffff;dashed=0;verticalLabelPosition=bottom;verticalAlign=top;align=center;html=1;fontSize=12;fontStyle=0;aspect=fixed;shape=mxgraph.aws4.resourceIcon;resIcon=mxgraph.aws4.ecr;" parent="1" vertex="1">
          <mxGeometry x="400" y="169" width="30" height="30" as="geometry" />
        </mxCell>
        <mxCell id="8JMCMYOHUbDYGH28COBw-2" value="" style="outlineConnect=0;dashed=0;verticalLabelPosition=bottom;verticalAlign=top;align=center;html=1;shape=mxgraph.aws3.android;fillColor=#FFD44F;gradientColor=none;" parent="1" vertex="1">
          <mxGeometry x="430" y="168" width="28" height="31" as="geometry" />
        </mxCell>
        <mxCell id="8JMCMYOHUbDYGH28COBw-8" style="edgeStyle=orthogonalEdgeStyle;rounded=0;orthogonalLoop=1;jettySize=auto;html=1;entryX=0.25;entryY=0;entryDx=0;entryDy=0;strokeWidth=6;" parent="1" source="8JMCMYOHUbDYGH28COBw-4" target="Y5Xn4VqGCodK_vh0GEGT-53" edge="1">
          <mxGeometry relative="1" as="geometry">
            <Array as="points">
              <mxPoint x="460" y="-77" />
              <mxPoint x="1160" y="-77" />
            </Array>
          </mxGeometry>
        </mxCell>
        <mxCell id="8JMCMYOHUbDYGH28COBw-4" value="" style="dashed=0;outlineConnect=0;html=1;align=center;labelPosition=center;verticalLabelPosition=bottom;verticalAlign=top;shape=mxgraph.weblogos.json" parent="1" vertex="1">
          <mxGeometry x="425" y="-43" width="70" height="75.8" as="geometry" />
        </mxCell>
        <mxCell id="8JMCMYOHUbDYGH28COBw-9" value="&lt;div&gt;MS2 spectra as &lt;br&gt;&lt;/div&gt;&lt;div&gt;- flat .txt matrix&lt;/div&gt;&lt;div&gt;- spectrum DB file (.json, .msp, .mgf)&lt;br&gt;&lt;/div&gt;" style="text;html=1;align=center;verticalAlign=middle;resizable=0;points=[];autosize=1;strokeColor=none;fillColor=none;" parent="1" vertex="1">
          <mxGeometry x="504" y="-27.5" width="213" height="55" as="geometry" />
        </mxCell>
      </root>
    </mxGraphModel>
  </diagram>
</mxfile>
